<svg width="40" height="45" viewBox="0 0 40 45" fill="none" xmlns="http://www.w3.org/2000/svg">
<rect width="40" height="45" fill="#FFD9CB"/>
<g clip-path="url(#clip0_13_58)">
<path d="M18.1155 24.1127C18.1155 23.9156 17.9469 23.7559 17.7389 23.7559H16.425C16.2173 23.7559 16.0487 23.9156 16.0487 24.1127V25.3592C16.0487 25.5566 16.2173 25.7164 16.425 25.7164H17.7389C17.9469 25.7164 18.1155 25.5566 18.1155 25.3592V24.1127Z" fill="#FE6B37"/>
<path d="M21.3225 24.1127C21.3225 23.9156 21.1597 23.7559 20.9593 23.7559H19.6904C19.4898 23.7559 19.327 23.9156 19.327 24.1127V25.3592C19.327 25.5566 19.4898 25.7164 19.6904 25.7164H20.9593C21.1597 25.7164 21.3225 25.5566 21.3225 25.3592V24.1127Z" fill="#FE6B37"/>
<path d="M24.6008 24.1127C24.6008 23.9156 24.4322 23.7559 24.2245 23.7559H22.9106C22.7026 23.7559 22.5341 23.9156 22.5341 24.1127V25.3592C22.5341 25.5566 22.7026 25.7164 22.9106 25.7164H24.2245C24.4322 25.7164 24.6008 25.5566 24.6008 25.3592V24.1127Z" fill="#FE6B37"/>
<path d="M18.1155 27.2637C18.1155 27.0662 17.9469 26.9066 17.7389 26.9066H16.425C16.2173 26.9066 16.0487 27.0662 16.0487 27.2637V28.51C16.0487 28.7073 16.2173 28.8671 16.425 28.8671H17.7389C17.9469 28.8671 18.1155 28.7073 18.1155 28.51V27.2637Z" fill="#FE6B37"/>
<path d="M21.3225 27.2637C21.3225 27.0662 21.1597 26.9066 20.9593 26.9066H19.6904C19.4898 26.9066 19.327 27.0662 19.327 27.2637V28.51C19.327 28.7073 19.4898 28.8671 19.6904 28.8671H20.9593C21.1597 28.8671 21.3225 28.7073 21.3225 28.51V27.2637Z" fill="#FE6B37"/>
<path d="M24.6008 27.2637C24.6008 27.0662 24.4322 26.9066 24.2247 26.9066H22.9106C22.7026 26.9066 22.5341 27.0662 22.5341 27.2637V28.51C22.5341 28.7073 22.7026 28.8671 22.9106 28.8671H24.2247C24.4322 28.8671 24.6008 28.7073 24.6008 28.51V27.2637Z" fill="#FE6B37"/>
<path d="M26.8858 17.041V18.9748C26.8858 19.8489 26.1617 20.5533 25.2692 20.5533H24.2494C23.3568 20.5533 22.6231 19.8489 22.6231 18.9748V17.0341H18.0265V18.9748C18.0265 19.8489 17.2928 20.5533 16.4003 20.5533H15.3803C14.4879 20.5533 13.7638 19.8489 13.7638 18.9748V17.041C12.9837 17.064 12.3428 17.6961 12.3428 18.4729V29.8062C12.3428 30.5976 12.9979 31.2476 13.8061 31.2476H26.8434C27.6505 31.2476 28.3068 30.5963 28.3068 29.8062V18.4729C28.3068 17.6961 27.6658 17.064 26.8858 17.041ZM26.4121 29.1004C26.4121 29.4424 26.1289 29.7199 25.7795 29.7199H14.8422C14.4927 29.7199 14.2095 29.4424 14.2095 29.1004V23.2464C14.2095 22.9042 14.4927 22.6267 14.8422 22.6267H25.7795C26.1289 22.6267 26.4121 22.9042 26.4121 23.2464V29.1004Z" fill="#FE6B37"/>
<path d="M15.3969 19.5546H16.4154C16.7245 19.5546 16.9752 19.311 16.9752 19.0101V15.8283C16.9752 15.5274 16.7245 15.2836 16.4154 15.2836H15.3969C15.0878 15.2836 14.8372 15.5274 14.8372 15.8283V19.0101C14.8372 19.311 15.0878 19.5546 15.3969 19.5546Z" fill="#FE6B37"/>
<path d="M24.2341 19.5546H25.2527C25.5617 19.5546 25.8124 19.311 25.8124 19.0101V15.8283C25.8124 15.5274 25.5617 15.2836 25.2527 15.2836H24.2341C23.925 15.2836 23.6743 15.5274 23.6743 15.8283V19.0101C23.6743 19.311 23.925 19.5546 24.2341 19.5546Z" fill="#FE6B37"/>
</g>
<defs>
<clipPath id="clip0_13_58">
<rect width="15.964" height="15.964" fill="white" transform="translate(12.3428 15.2836)"/>
</clipPath>
</defs>
</svg>
