<svg width="44" height="44" viewBox="0 0 44 44" fill="none" xmlns="http://www.w3.org/2000/svg">
<path d="M22 0.125C9.91992 0.125 0.125 9.91992 0.125 22C0.125 34.0801 9.91992 43.875 22 43.875C34.0801 43.875 43.875 34.0801 43.875 22C43.875 9.91992 34.0801 0.125 22 0.125ZM23.7822 27.4102C21.6387 30.4277 17.332 31.3066 13.9727 30.0127C10.6035 28.7285 8.21094 25.1689 8.49902 21.541C8.57227 17.1025 12.6592 13.2109 17.0977 13.3623C19.2266 13.2646 21.2285 14.1875 22.8594 15.4912C22.1611 16.2822 21.4434 17.0439 20.6719 17.752C18.7139 16.3994 15.9258 16.0137 13.9678 17.5762C11.165 19.5146 11.0381 24.0898 13.7334 26.1748C16.3555 28.5527 21.3115 27.3711 22.0391 23.7285C20.3984 23.7041 18.748 23.7285 17.1074 23.6748C17.1025 22.6934 17.0977 21.7168 17.1025 20.7354C19.8467 20.7256 22.5957 20.7207 25.3447 20.7451C25.5059 23.0547 25.1982 25.5059 23.7822 27.4102ZM35.623 23.1963C34.8027 23.2061 33.9824 23.2109 33.1621 23.2158C33.1523 24.0361 33.1475 24.8564 33.1475 25.6768H30.6914C30.6816 24.8564 30.6816 24.041 30.6768 23.2207C29.8564 23.2109 29.0361 23.2061 28.2158 23.1963V20.75C29.0361 20.7402 29.8564 20.7354 30.6768 20.7354C30.6816 19.915 30.6914 19.0947 30.6963 18.2744H33.1475L33.1621 20.7354C33.9824 20.7451 34.8027 20.7451 35.623 20.75V23.1963Z" fill="#C0C2C2"/>
</svg>
