<svg width="32" height="32" viewBox="0 0 32 32" fill="none" xmlns="http://www.w3.org/2000/svg">
<path fill-rule="evenodd" clip-rule="evenodd" d="M19.7422 0.808268C19.9735 0.172029 20.6784 -0.156893 21.3168 0.0736009C23.6702 0.923388 25.8775 2.28851 27.7613 4.16614C29.6925 6.09093 31.0832 8.35439 31.9306 10.7662C32.155 11.4049 31.8174 12.104 31.1766 12.3276C30.5358 12.5513 29.8345 12.2148 29.6101 11.5761C28.8821 9.50409 27.6873 7.558 26.0228 5.89895C24.3989 4.28046 22.5011 3.10765 20.4793 2.37763C19.841 2.14713 19.5109 1.44451 19.7422 0.808268ZM3.7498 1.56613C5.71204 -0.389631 8.89009 -0.298858 10.8472 1.65182L14.1141 4.90794C16.0713 6.85862 16.1623 10.0262 14.2001 11.9819L13.7471 12.4335C13.4058 12.7737 13.369 13.3253 13.6934 13.7171C14.3771 14.5429 15.1105 15.361 15.9023 16.1502C16.6941 16.9393 17.5149 17.6703 18.3434 18.3518C18.7366 18.6751 19.29 18.6385 19.6313 18.2983L20.0843 17.8468C22.0466 15.891 25.2246 15.9818 27.1818 17.9324L30.4487 21.1886C32.4058 23.1393 32.4969 26.3068 30.5346 28.2626L28.4255 30.3648C26.282 32.5012 22.7753 32.3283 19.3635 31.0806C15.8451 29.794 11.9187 27.2073 8.3636 23.664C4.80852 20.1207 2.2133 16.2072 0.922402 12.7005C-0.329414 9.2999 -0.502861 5.80477 1.64064 3.66834L3.7498 1.56613ZM9.10868 3.38463C8.05871 2.33812 6.43826 2.35217 5.48835 3.29894L3.37919 5.40114C2.31934 6.4575 2.0492 8.64705 3.23062 11.8564C4.37295 14.9595 6.74088 18.581 10.1021 21.9312C13.4634 25.2814 17.0969 27.6415 20.2104 28.78C23.4303 29.9576 25.6271 29.6883 26.6869 28.632L28.7961 26.5298C29.746 25.583 29.7601 23.9679 28.7101 22.9214L25.4432 19.6653C24.3932 18.6188 22.7728 18.6328 21.8229 19.5796L21.3699 20.0311C20.1389 21.258 18.1558 21.3747 16.7785 20.2419C15.8994 19.5188 15.0192 18.7356 14.1638 17.883C13.3083 17.0303 12.5225 16.1531 11.797 15.2768C10.6605 13.9041 10.7775 11.9276 12.0085 10.7007L12.4616 10.2491C13.4115 9.30237 13.4256 7.68726 12.3756 6.64075L9.10868 3.38463ZM19.7711 6.29543C20.0423 5.67509 20.7668 5.39138 21.3892 5.66174C22.4417 6.11894 23.4264 6.77623 24.2843 7.63137C25.1938 8.53777 25.88 9.58595 26.3406 10.7059C26.5982 11.332 26.2977 12.0477 25.6695 12.3044C25.0413 12.561 24.3232 12.2615 24.0657 11.6354C23.7265 10.8106 23.2207 10.0368 22.5458 9.36418C21.909 8.72943 21.1819 8.24487 20.4069 7.90822C19.7845 7.63785 19.4998 6.91578 19.7711 6.29543Z" fill="#C0C2C2"/>
</svg>
